
        <svg xmlns="http://www.w3.org/2000/svg" xmlns:xlink="http://www.w3.org/1999/xlink" version="1.1" width="3157.48031496063" height="872.7022460737709" viewBox="0 0 3157.48031496063 872.7022460737709">
			
			<g transform="scale(7.874015748031496) translate(10, 10)">
				<defs id="SvgjsDefs1229"/><g id="SvgjsG1230" featureKey="UqkkrJ-0" transform="matrix(1.0737037602568396,0,0,1.0737037602568396,-9.938371515983992,-7.741325348164041)" fill="#fff"><path xmlns="http://www.w3.org/2000/svg" d="M90.1,18.6c-1.2-2.1-3.9-3.4-7.8-3.6l-5.2-0.2c-2-0.1-3.8,0-5.6,0.2c-3.4,0.4-5,1.2-6.7,2.1l-0.7,0.4  c-1.9,0.9-3.6,2.1-5.4,3.7c-2.1-0.3-4.5-0.5-7.9-0.5c-4,0-6.9,0.2-9.3,0.6c-1.8-1.7-3.7-2.9-5.6-3.9l-0.7-0.4  c-1.8-0.9-3.3-1.7-6.7-2.1c-1.8-0.2-3.6-0.3-5.6-0.2l-5.2,0.2c-3.9,0.2-6.6,1.5-7.8,3.6c-1.2,2.3-0.5,4.6,0.3,6.9  c0.2,0.5,0.3,1.1,0.5,1.6c0.2,0.6,0.6,1.1,1.2,1.3c0.6,0.2,1.2,0,1.6-0.4l3.3-3C16.9,25,17,25,17,25c0.1,0,0.2,0.1,0.2,0.2  c1,1.6,2,3.4,3,5.2l-1.8,25.2c-0.4,6.1,2.4,11.8,7.3,14.5c2.3,1.3,4.4,3.4,6.2,6.4c3.2,5.3,10.4,8.7,18.4,8.7s15.2-3.4,18.4-8.7  c1.8-3,3.9-5.1,6.2-6.4c4.9-2.7,7.7-8.4,7.3-14.5l-1.9-25.9c0.9-1.6,1.7-3.1,2.6-4.6c0.1-0.1,0.1-0.1,0.2-0.2c0.1,0,0.1,0,0.2,0.1  l3.3,3c0.5,0.4,1.1,0.6,1.6,0.4c0.6-0.2,1.1-0.7,1.2-1.3c0.1-0.5,0.3-1.1,0.5-1.6C90.6,23.3,91.3,20.9,90.1,18.6z M88.4,25.1  c-0.2,0.6-0.4,1.1-0.5,1.7c0,0.1-0.1,0.2-0.2,0.3c-0.1,0-0.1,0-0.2-0.1l-3.3-3c-0.4-0.4-0.9-0.5-1.4-0.5c-0.5,0.1-1,0.4-1.3,0.9  c-0.9,1.5-1.9,3.1-2.8,4.8l-0.1,0.2l1.9,26.3c0.4,5.5-2.2,10.7-6.5,13.1c-2.5,1.4-4.8,3.7-6.7,6.9c-2.9,4.7-9.3,7.8-16.5,8V73.5  c4.8-0.2,8.5-2.4,8.5-5.1c0-2.8-4.1-5.1-9.2-5.1s-9.2,2.3-9.2,5.1c0,2.7,3.7,4.9,8.5,5.1v10.1c-7-0.3-13.3-3.3-16.1-7.9  c-1.9-3.2-4.2-5.5-6.7-6.9c-4.3-2.4-6.9-7.6-6.5-13.1l1.8-25.6l-0.1-0.2c-1-1.9-2.1-3.8-3.1-5.5c-0.3-0.5-0.8-0.8-1.3-0.9  c-0.1,0-0.2,0-0.2,0c-0.4,0-0.9,0.2-1.2,0.5l-3.3,3C12.5,27,12.4,27,12.3,27c-0.1,0-0.2-0.1-0.2-0.3c-0.2-0.6-0.3-1.1-0.5-1.7  c-0.7-2.1-1.3-4-0.4-5.7c1.1-2.1,4.2-2.7,6.5-2.8l5.2-0.2c1.9-0.1,3.6,0,5.3,0.2c3.2,0.4,4.5,1.1,6.2,1.9l0.7,0.4  c1.9,0.9,3.7,2.2,5.5,3.9L41,23l0.4-0.1c2.3-0.5,5.2-0.7,9.3-0.7c3.5,0,6,0.2,8,0.5l0.4,0.1l0.3-0.2c1.8-1.6,3.5-2.8,5.3-3.7  l0.7-0.4c1.7-0.9,3.1-1.5,6.2-1.9c1.7-0.2,3.4-0.3,5.3-0.2l5.2,0.2c2.3,0.1,5.4,0.7,6.5,2.8v0C89.7,21.1,89.1,23,88.4,25.1z   M37.5,45.5c0,1.6-1.3,2.9-2.9,2.9s-2.9-1.3-2.9-2.9c0-1.6,1.3-2.9,2.9-2.9S37.5,43.9,37.5,45.5z M68.3,45.5c0,1.6-1.3,2.9-2.9,2.9  s-2.9-1.3-2.9-2.9c0-1.6,1.3-2.9,2.9-2.9S68.3,43.9,68.3,45.5z"/></g><g id="SvgjsG1231" featureKey="0kuQ8p-0" transform="matrix(4.255836554818771,0,0,4.255836554818771,104.59533095907908,-24.854080041507718)" fill="#fff"><path d="M4.04 6 c2.2 0 3.28 1.22 3.28 3.46 l0 1.82 c0 2.24 -1.08 3.46 -3.28 3.46 l-1.04 0 l0 5.26 l-2.2 0 l0 -14 l3.24 0 z M4.04 8 l-1.04 0 l0 4.74 l1.04 0 c0.7 0 1.08 -0.32 1.08 -1.32 l0 -2.1 c0 -1 -0.38 -1.32 -1.08 -1.32 z M10.54 8 l0 3.9 l3.02 0 l0 2 l-3.02 0 l0 4.1 l3.8 0 l0 2 l-6 0 l0 -14 l6 0 l0 2 l-3.8 0 z M15.06 8 l0 -2 l6.8 0 l0 2 l-2.3 0 l0 12 l-2.2 0 l0 -12 l-2.3 0 z M25.64 9.36 c0 -2.24 1.1 -3.52 3.24 -3.52 s3.24 1.28 3.24 3.52 l0 0.44 l-2.08 0 l0 -0.58 c0 -1 -0.4 -1.38 -1.1 -1.38 s-1.1 0.38 -1.1 1.38 c0 1.02 0.44 1.78 1.88 3.04 c1.84 1.62 2.42 2.78 2.42 4.38 c0 2.24 -1.12 3.52 -3.28 3.52 s-3.28 -1.28 -3.28 -3.52 l0 -0.86 l2.08 0 l0 1 c0 1 0.44 1.36 1.14 1.36 s1.14 -0.36 1.14 -1.36 c0 -1.02 -0.44 -1.78 -1.88 -3.04 c-1.84 -1.62 -2.42 -2.78 -2.42 -4.38 z M32.76 8 l0 -2 l6.8 0 l0 2 l-2.3 0 l0 12 l-2.2 0 l0 -12 l-2.3 0 z M42.54 9.22 l0 7.56 c0 1 0.44 1.38 1.14 1.38 s1.14 -0.38 1.14 -1.38 l0 -7.56 c0 -1 -0.44 -1.38 -1.14 -1.38 s-1.14 0.38 -1.14 1.38 z M40.339999999999996 16.64 l0 -7.28 c0 -2.24 1.18 -3.52 3.34 -3.52 s3.34 1.28 3.34 3.52 l0 7.28 c0 2.24 -1.18 3.52 -3.34 3.52 s-3.34 -1.28 -3.34 -3.52 z M55.28 20 l-2.24 0 c-0.12 -0.36 -0.2 -0.58 -0.2 -1.72 l0 -2.2 c0 -1.3 -0.44 -1.78 -1.44 -1.78 l-0.76 0 l0 5.7 l-2.2 0 l0 -14 l3.32 0 c2.28 0 3.26 1.06 3.26 3.22 l0 1.1 c0 1.44 -0.46 2.36 -1.44 2.82 l0 0.04 c1.1 0.46 1.46 1.5 1.46 2.96 l0 2.16 c0 0.68 0.02 1.18 0.24 1.7 z M51.7 8 l-1.06 0 l0 4.3 l0.86 0 c0.82 0 1.32 -0.36 1.32 -1.48 l0 -1.38 c0 -1 -0.34 -1.44 -1.12 -1.44 z M58.68 8 l0 3.9 l3.02 0 l0 2 l-3.02 0 l0 4.1 l3.8 0 l0 2 l-6 0 l0 -14 l6 0 l0 2 l-3.8 0 z"/></g><g id="SvgjsG1232" featureKey="Nh6iBa-0" transform="matrix(1.4166560893834932,0,0,1.4166560893834932,107.68833629531903,62.50006346369904)" fill="#fff"><path d="M5.68 6 l2.24 14 l-2.22 0 l-0.38 -2.54 l-2.7 0 l-0.38 2.54 l-2.02 0 l2.24 -14 l3.22 0 z M3.94 8.48 l-1.04 7.08 l2.12 0 l-1.04 -7.08 l-0.04 0 z M34.795875 20 l-2.7 -10.14 l-0.04 0 l0 10.14 l-1.98 0 l0 -14 l2.76 0 l2.22 8.38 l0.04 0 l0 -8.38 l1.96 0 l0 14 l-2.26 0 z M49.8638125 8 l0 3.9 l3.02 0 l0 2 l-3.02 0 l0 4.1 l3.8 0 l0 2 l-6 0 l0 -14 l6 0 l0 2 l-3.8 0 z M69.73175 20 l-0.78 -7.46 l-0.04 0 l-0.78 7.46 l-3.02 0 l-1.56 -14 l2.14 0 l1.16 11.04 l0.04 0 l1.04 -11.04 l2.12 0 l1.08 11.12 l0.04 0 l1.12 -11.12 l1.92 0 l-1.56 14 l-2.92 0 z M99.507625 6 l1.6 9.94 l0.04 0 l1.48 -9.94 l3.06 0 l0 14 l-2.08 0 l0 -10.04 l-0.04 0 l-1.48 10.04 l-2.08 0 l-1.6 -9.9 l-0.04 0 l0 9.9 l-1.92 0 l0 -14 l3.06 0 z M118.5155625 8 l0 3.9 l3.02 0 l0 2 l-3.02 0 l0 4.1 l3.8 0 l0 2 l-6 0 l0 -14 l6 0 l0 2 l-3.8 0 z M135.7435 6 l1.6 9.94 l0.04 0 l1.48 -9.94 l3.06 0 l0 14 l-2.08 0 l0 -10.04 l-0.04 0 l-1.48 10.04 l-2.08 0 l-1.6 -9.9 l-0.04 0 l0 9.9 l-1.92 0 l0 -14 l3.06 0 z M155.8714375 6 c2.28 0 3.26 1.06 3.26 3.22 l0 0.5 c0 1.44 -0.44 2.34 -1.42 2.8 l0 0.04 c1.18 0.46 1.64 1.5 1.64 2.98 l0 1.14 c0 2.16 -1.14 3.32 -3.34 3.32 l-3.46 0 l0 -14 l3.32 0 z M155.7314375 13.7 l-0.98 0 l0 4.3 l1.26 0 c0.74 0 1.14 -0.34 1.14 -1.38 l0 -1.22 c0 -1.3 -0.42 -1.7 -1.42 -1.7 z M155.8114375 8 l-1.06 0 l0 3.7 l0.86 0 c0.82 0 1.32 -0.36 1.32 -1.48 l0 -0.78 c0 -1 -0.34 -1.44 -1.12 -1.44 z M171.89937500000002 8 l0 3.9 l3.02 0 l0 2 l-3.02 0 l0 4.1 l3.8 0 l0 2 l-6 0 l0 -14 l6 0 l0 2 l-3.8 0 z M192.9273125 20 l-2.24 0 c-0.12 -0.36 -0.2 -0.58 -0.2 -1.72 l0 -2.2 c0 -1.3 -0.44 -1.78 -1.44 -1.78 l-0.76 0 l0 5.7 l-2.2 0 l0 -14 l3.32 0 c2.28 0 3.26 1.06 3.26 3.22 l0 1.1 c0 1.44 -0.46 2.36 -1.44 2.82 l0 0.04 c1.1 0.46 1.46 1.5 1.46 2.96 l0 2.16 c0 0.68 0.02 1.18 0.24 1.7 z M189.34731250000002 8 l-1.06 0 l0 4.3 l0.86 0 c0.82 0 1.32 -0.36 1.32 -1.48 l0 -1.38 c0 -1 -0.34 -1.44 -1.12 -1.44 z"/></g>
			</g>
		</svg>
	